# xmcd
#
# Track frame offsets:
#  150
#  12089
#  25702
#  39502
#  52676
#  75134
#  92512
#  117373
#  137854
#  151178
#  169850
#  184364
#
# Disc length: 2686 seconds
#
# Revision: 0
# Processed by: cddbd v1.5.1PL2 Copyright (c) Steve Scherf et al.
# Submitted via: Collectorz.com_Music_Collector 6.10
#
DISCID=810a7c0c
DTITLE=Rough Shop - Far Past The Outgkirts
DYEAR=2006
DGENRE=Americana - Roots Rock
TTITLE0=Wonder What It Means
TTITLE1=I'm Your Man
TTITLE2=Destination Anywhere
TTITLE3=Town's For Sale
TTITLE4=Can't Turn Your Way
TTITLE5=Everything You Love Will Be Carried Away
TTITLE6=Hellbound Train
TTITLE7=Final Wild Son
TTITLE8=Soundtrack Of Our Lies
TTITLE9=Good Intentions
TTITLE10=Am I Rising
TTITLE11=Waiting In The Wings
EXTD=
EXTT0=
EXTT1=
EXTT2=
EXTT3=
EXTT4=
EXTT5=
EXTT6=
EXTT7=
EXTT8=
EXTT9=
EXTT10=
EXTT11=
PLAYORDER=
